<?xml version="1.0" encoding="utf-8"?>
<!-- Generator: Adobe Illustrator 27.5.0, SVG Export Plug-In . SVG Version: 6.00 Build 0)  -->
<svg version="1.1" xmlns="http://www.w3.org/2000/svg" xmlns:xlink="http://www.w3.org/1999/xlink" x="0px" y="0px"
	 viewBox="0 0 750 500" style="enable-background:new 0 0 750 500;" xml:space="preserve">
<g id="Background_Simple">
	<g>
		<path style="fill:#92E3A9;" d="M632.122,139.985c0,0-102.786-105.269-236.354-113.391s-211.462,78.153-248.372,129.615
			C110.488,207.671,18.435,293.407,29.265,371.923c10.83,78.516,117.323,138.08,269.842,111.908
			c152.519-26.172,196.741-36.099,266.232-16.245c69.491,19.855,159.739-9.927,161.544-122.738S632.122,139.985,632.122,139.985z"/>
		<path style="opacity:0.7;fill:#FFFFFF;" d="M632.122,139.985c0,0-102.786-105.269-236.354-113.391
			s-211.462,78.153-248.372,129.615C110.488,207.671,18.435,293.407,29.265,371.923c10.83,78.516,117.323,138.08,269.842,111.908
			c152.519-26.172,196.741-36.099,266.232-16.245c69.491,19.855,159.739-9.927,161.544-122.738S632.122,139.985,632.122,139.985z"/>
	</g>
</g>
<g id="Floor">
	<line style="fill:none;stroke:#263238;stroke-miterlimit:10;" x1="48.922" y1="456.648" x2="700.843" y2="456.648"/>
</g>
<g id="Plants">
	<g>
		<g>
			
				<line style="fill:none;stroke:#263238;stroke-width:2;stroke-miterlimit:10;" x1="77.325" y1="289.526" x2="90.507" y2="415.834"/>
			<g>
				<g>
					
						<line style="fill:none;stroke:#263238;stroke-width:2;stroke-miterlimit:10;" x1="88.382" y1="391.662" x2="82.406" y2="385.35"/>
					<path style="fill:#92E3A9;stroke:#263238;stroke-miterlimit:10;" d="M84.222,387.241c0,0,0.171-2.792-2.378-5.069
						c-1.534-1.37-9.606-4.766-10.372-1.923C70.638,383.342,78.901,389.415,84.222,387.241z"/>
					
						<line style="fill:none;stroke:#263238;stroke-width:0.5;stroke-miterlimit:10;" x1="84.222" y1="387.241" x2="76.537" y2="382.452"/>
				</g>
				<g>
					
						<line style="fill:none;stroke:#263238;stroke-width:2;stroke-miterlimit:10;" x1="89.881" y1="406.027" x2="83.906" y2="399.715"/>
					<path style="fill:#92E3A9;stroke:#263238;stroke-miterlimit:10;" d="M85.721,401.606c0,0,0.171-2.792-2.379-5.069
						c-1.534-1.37-9.606-4.766-10.373-1.923C72.137,397.707,80.4,403.78,85.721,401.606z"/>
					
						<line style="fill:none;stroke:#263238;stroke-width:0.5;stroke-miterlimit:10;" x1="85.721" y1="401.606" x2="78.036" y2="396.817"/>
				</g>
				<g>
					
						<line style="fill:none;stroke:#263238;stroke-width:2;stroke-miterlimit:10;" x1="84.724" y1="356.609" x2="78.748" y2="350.297"/>
					<path style="fill:#92E3A9;stroke:#263238;stroke-miterlimit:10;" d="M80.564,352.189c0,0,0.171-2.792-2.378-5.069
						c-1.534-1.37-9.606-4.766-10.373-1.923C66.98,348.289,75.242,354.362,80.564,352.189z"/>
					
						<line style="fill:none;stroke:#263238;stroke-width:0.5;stroke-miterlimit:10;" x1="80.564" y1="352.189" x2="72.879" y2="347.399"/>
				</g>
				<g>
					
						<line style="fill:none;stroke:#263238;stroke-width:2;stroke-miterlimit:10;" x1="86.223" y1="370.974" x2="80.247" y2="364.662"/>
					<path style="fill:#92E3A9;stroke:#263238;stroke-miterlimit:10;" d="M82.063,366.553c0,0,0.171-2.792-2.379-5.069
						c-1.534-1.37-9.606-4.766-10.372-1.923C68.479,362.654,76.742,368.727,82.063,366.553z"/>
					
						<line style="fill:none;stroke:#263238;stroke-width:0.5;stroke-miterlimit:10;" x1="82.063" y1="366.553" x2="74.378" y2="361.764"/>
				</g>
				<g>
					
						<line style="fill:none;stroke:#263238;stroke-width:2;stroke-miterlimit:10;" x1="82.289" y1="333.274" x2="76.313" y2="326.963"/>
					<path style="fill:#92E3A9;stroke:#263238;stroke-miterlimit:10;" d="M78.129,328.854c0,0,0.171-2.792-2.378-5.069
						c-1.534-1.37-9.606-4.766-10.373-1.922C64.544,324.954,72.807,331.027,78.129,328.854z"/>
					
						<line style="fill:none;stroke:#263238;stroke-width:0.5;stroke-miterlimit:10;" x1="78.129" y1="328.854" x2="70.443" y2="324.065"/>
				</g>
				<g>
					
						<line style="fill:none;stroke:#263238;stroke-width:2;stroke-miterlimit:10;" x1="79.843" y1="309.838" x2="73.867" y2="303.526"/>
					<path style="fill:#92E3A9;stroke:#263238;stroke-miterlimit:10;" d="M75.683,305.417c0,0,0.171-2.792-2.379-5.069
						c-1.534-1.37-9.606-4.766-10.373-1.923C62.099,301.518,70.361,307.591,75.683,305.417z"/>
					
						<line style="fill:none;stroke:#263238;stroke-width:0.5;stroke-miterlimit:10;" x1="75.683" y1="305.417" x2="67.997" y2="300.628"/>
				</g>
				<g>
					
						<line style="fill:none;stroke:#263238;stroke-width:2;stroke-miterlimit:10;" x1="87.378" y1="383.163" x2="91.922" y2="375.753"/>
					<path style="fill:#92E3A9;stroke:#263238;stroke-miterlimit:10;" d="M90.535,377.978c0,0-0.744-2.697,1.281-5.451
						c1.218-1.657,8.415-6.647,9.752-4.023C103.022,371.358,96.191,379.006,90.535,377.978z"/>
					
						<line style="fill:none;stroke:#263238;stroke-width:0.5;stroke-miterlimit:10;" x1="90.535" y1="377.978" x2="97.456" y2="371.364"/>
				</g>
				<g>
					
						<line style="fill:none;stroke:#263238;stroke-width:2;stroke-miterlimit:10;" x1="83.433" y1="345.361" x2="87.977" y2="337.952"/>
					<path style="fill:#92E3A9;stroke:#263238;stroke-miterlimit:10;" d="M86.59,340.177c0,0-0.744-2.697,1.281-5.451
						c1.218-1.657,8.415-6.647,9.752-4.023C99.077,333.557,92.246,341.205,86.59,340.177z"/>
					
						<line style="fill:none;stroke:#263238;stroke-width:0.5;stroke-miterlimit:10;" x1="86.59" y1="340.177" x2="93.511" y2="333.563"/>
				</g>
				<g>
					
						<line style="fill:none;stroke:#263238;stroke-width:2;stroke-miterlimit:10;" x1="81.699" y1="328.749" x2="86.243" y2="321.34"/>
					<path style="fill:#92E3A9;stroke:#263238;stroke-miterlimit:10;" d="M84.857,323.565c0,0-0.744-2.697,1.281-5.451
						c1.218-1.657,8.416-6.647,9.752-4.023C97.343,316.944,90.512,324.593,84.857,323.565z"/>
					
						<line style="fill:none;stroke:#263238;stroke-width:0.5;stroke-miterlimit:10;" x1="84.857" y1="323.565" x2="91.777" y2="316.951"/>
				</g>
				<g>
					
						<line style="fill:none;stroke:#263238;stroke-width:2;stroke-miterlimit:10;" x1="79.158" y1="304.395" x2="83.701" y2="296.986"/>
					<path style="fill:#92E3A9;stroke:#263238;stroke-miterlimit:10;" d="M82.315,299.211c0,0-0.744-2.697,1.281-5.451
						c1.218-1.657,8.415-6.647,9.752-4.023C94.801,292.591,87.971,300.239,82.315,299.211z"/>
					
						<line style="fill:none;stroke:#263238;stroke-width:0.5;stroke-miterlimit:10;" x1="82.315" y1="299.211" x2="89.235" y2="292.597"/>
					<path style="fill:#92E3A9;stroke:#263238;stroke-miterlimit:10;" d="M77.214,288.825c0,0-0.744-2.696,1.281-5.451
						c1.218-1.657,8.416-6.647,9.752-4.023C89.7,282.204,82.87,289.853,77.214,288.825z"/>
					
						<line style="fill:none;stroke:#263238;stroke-width:0.5;stroke-miterlimit:10;" x1="77.214" y1="288.825" x2="84.134" y2="282.21"/>
					<path style="fill:#92E3A9;stroke:#263238;stroke-miterlimit:10;" d="M77.615,289.11c0,0-2.76,0.457-5.286-1.845
						c-1.52-1.385-5.728-9.066-2.978-10.12C72.341,275.998,79.23,283.593,77.615,289.11z"/>
					
						<line style="fill:none;stroke:#263238;stroke-width:0.5;stroke-miterlimit:10;" x1="77.615" y1="289.11" x2="71.763" y2="281.534"/>
				</g>
			</g>
		</g>
		<g>
			
				<line style="fill:none;stroke:#263238;stroke-width:2;stroke-miterlimit:10;" x1="112.092" y1="306.921" x2="98.985" y2="433.237"/>
			<g>
				<g>
					
						<line style="fill:none;stroke:#263238;stroke-width:2;stroke-miterlimit:10;" x1="101.883" y1="409.145" x2="97.335" y2="401.738"/>
					<path style="fill:#92E3A9;stroke:#263238;stroke-miterlimit:10;" d="M98.722,403.963c0,0,0.742-2.697-1.284-5.45
						c-1.219-1.656-8.42-6.642-9.754-4.017C86.232,397.35,93.067,404.994,98.722,403.963z"/>
					
						<line style="fill:none;stroke:#263238;stroke-width:0.5;stroke-miterlimit:10;" x1="98.722" y1="403.963" x2="92.188" y2="397.694"/>
				</g>
				<g>
					
						<line style="fill:none;stroke:#263238;stroke-width:2;stroke-miterlimit:10;" x1="105.52" y1="374.09" x2="100.972" y2="366.683"/>
					<path style="fill:#92E3A9;stroke:#263238;stroke-miterlimit:10;" d="M102.359,368.907c0,0,0.742-2.697-1.284-5.45
						c-1.219-1.656-8.419-6.642-9.754-4.017C89.869,362.295,96.704,369.939,102.359,368.907z"/>
					
						<line style="fill:none;stroke:#263238;stroke-width:0.5;stroke-miterlimit:10;" x1="102.359" y1="368.907" x2="95.825" y2="362.638"/>
				</g>
				<g>
					
						<line style="fill:none;stroke:#263238;stroke-width:2;stroke-miterlimit:10;" x1="104.03" y1="388.456" x2="99.481" y2="381.049"/>
					<path style="fill:#92E3A9;stroke:#263238;stroke-miterlimit:10;" d="M100.869,383.273c0,0,0.742-2.697-1.284-5.45
						c-1.219-1.656-8.419-6.642-9.754-4.017C88.379,376.66,95.214,384.305,100.869,383.273z"/>
					
						<line style="fill:none;stroke:#263238;stroke-width:0.5;stroke-miterlimit:10;" x1="100.869" y1="383.273" x2="94.335" y2="377.004"/>
				</g>
				<g>
					
						<line style="fill:none;stroke:#263238;stroke-width:2;stroke-miterlimit:10;" x1="107.942" y1="350.754" x2="103.394" y2="343.347"/>
					<path style="fill:#92E3A9;stroke:#263238;stroke-miterlimit:10;" d="M104.781,345.571c0,0,0.742-2.697-1.284-5.45
						c-1.219-1.656-8.419-6.642-9.755-4.017C92.291,338.958,99.126,346.603,104.781,345.571z"/>
					
						<line style="fill:none;stroke:#263238;stroke-width:0.5;stroke-miterlimit:10;" x1="104.781" y1="345.571" x2="98.246" y2="339.302"/>
				</g>
				<g>
					
						<line style="fill:none;stroke:#263238;stroke-width:2;stroke-miterlimit:10;" x1="110.374" y1="327.316" x2="105.826" y2="319.909"/>
					<path style="fill:#92E3A9;stroke:#263238;stroke-miterlimit:10;" d="M107.213,322.133c0,0,0.742-2.697-1.284-5.45
						c-1.219-1.657-8.419-6.642-9.754-4.018C94.723,315.52,101.558,323.165,107.213,322.133z"/>
					
						<line style="fill:none;stroke:#263238;stroke-width:0.5;stroke-miterlimit:10;" x1="107.213" y1="322.133" x2="100.679" y2="315.864"/>
				</g>
				<g>
					
						<line style="fill:none;stroke:#263238;stroke-width:2;stroke-miterlimit:10;" x1="102.65" y1="400.621" x2="108.622" y2="394.306"/>
					<path style="fill:#92E3A9;stroke:#263238;stroke-miterlimit:10;" d="M106.808,396.198c0,0-0.173-2.792,2.376-5.07
						c1.533-1.371,9.603-4.772,10.371-1.929C120.389,392.29,112.13,398.368,106.808,396.198z"/>
					
						<line style="fill:none;stroke:#263238;stroke-width:0.5;stroke-miterlimit:10;" x1="106.808" y1="396.198" x2="114.941" y2="391.15"/>
				</g>
				<g>
					
						<line style="fill:none;stroke:#263238;stroke-width:2;stroke-miterlimit:10;" x1="106.573" y1="362.817" x2="112.545" y2="356.502"/>
					<path style="fill:#92E3A9;stroke:#263238;stroke-miterlimit:10;" d="M110.73,358.394c0,0-0.173-2.792,2.375-5.07
						c1.533-1.371,9.604-4.772,10.371-1.929C124.312,354.487,116.053,360.565,110.73,358.394z"/>
					
						<line style="fill:none;stroke:#263238;stroke-width:0.5;stroke-miterlimit:10;" x1="110.73" y1="358.394" x2="118.864" y2="353.346"/>
				</g>
				<g>
					
						<line style="fill:none;stroke:#263238;stroke-width:2;stroke-miterlimit:10;" x1="108.297" y1="346.204" x2="114.269" y2="339.889"/>
					<path style="fill:#92E3A9;stroke:#263238;stroke-miterlimit:10;" d="M112.454,341.781c0,0-0.172-2.792,2.376-5.07
						c1.533-1.371,9.604-4.772,10.371-1.929C126.036,337.874,117.777,343.952,112.454,341.781z"/>
					
						<line style="fill:none;stroke:#263238;stroke-width:0.5;stroke-miterlimit:10;" x1="112.454" y1="341.781" x2="120.588" y2="336.733"/>
				</g>
				<g>
					
						<line style="fill:none;stroke:#263238;stroke-width:2;stroke-miterlimit:10;" x1="110.824" y1="321.849" x2="116.796" y2="315.534"/>
					<path style="fill:#92E3A9;stroke:#263238;stroke-miterlimit:10;" d="M114.981,317.426c0,0-0.173-2.792,2.375-5.07
						c1.533-1.371,9.604-4.771,10.371-1.929C128.563,313.518,120.304,319.596,114.981,317.426z"/>
					
						<line style="fill:none;stroke:#263238;stroke-width:0.5;stroke-miterlimit:10;" x1="114.981" y1="317.426" x2="123.115" y2="312.378"/>
					<path style="fill:#92E3A9;stroke:#263238;stroke-miterlimit:10;" d="M112.128,306.212c0,0-0.173-2.792,2.376-5.07
						c1.533-1.371,9.604-4.772,10.371-1.929C125.71,302.304,117.451,308.382,112.128,306.212z"/>
					
						<line style="fill:none;stroke:#263238;stroke-width:0.5;stroke-miterlimit:10;" x1="112.128" y1="306.212" x2="120.262" y2="301.164"/>
					<path style="fill:#92E3A9;stroke:#263238;stroke-miterlimit:10;" d="M112.462,306.573c0,0-2.795-0.121-4.793-2.894
						c-1.203-1.668-3.738-10.051-0.831-10.516C110,292.657,115.178,301.508,112.462,306.573z"/>
					
						<line style="fill:none;stroke:#263238;stroke-width:0.5;stroke-miterlimit:10;" x1="112.462" y1="306.573" x2="108.295" y2="297.955"/>
				</g>
			</g>
		</g>
		
			<line style="fill:none;stroke:#263238;stroke-width:2;stroke-miterlimit:10;" x1="97.072" y1="255.485" x2="97.072" y2="415.219"/>
		<g>
			<g>
				
					<line style="fill:none;stroke:#263238;stroke-width:2;stroke-miterlimit:10;" x1="97.199" y1="391.202" x2="91.91" y2="384.304"/>
				<path style="fill:#92E3A9;stroke:#263238;stroke-miterlimit:10;" d="M93.52,386.373c0,0,0.46-2.759-1.84-5.288
					c-1.383-1.522-9.06-5.737-10.117-2.989C80.414,381.085,88.002,387.983,93.52,386.373z"/>
				
					<line style="fill:none;stroke:#263238;stroke-width:0.5;stroke-miterlimit:10;" x1="93.52" y1="386.373" x2="86.373" y2="380.812"/>
			</g>
			<g>
				
					<line style="fill:none;stroke:#263238;stroke-width:2;stroke-miterlimit:10;" x1="97.199" y1="361.183" x2="91.91" y2="354.285"/>
				<path style="fill:#92E3A9;stroke:#263238;stroke-miterlimit:10;" d="M93.52,356.355c0,0,0.46-2.759-1.84-5.288
					c-1.383-1.522-9.06-5.737-10.117-2.989C80.414,351.066,88.002,357.964,93.52,356.355z"/>
				
					<line style="fill:none;stroke:#263238;stroke-width:0.5;stroke-miterlimit:10;" x1="93.52" y1="356.355" x2="86.373" y2="350.794"/>
			</g>
			<g>
				
					<line style="fill:none;stroke:#263238;stroke-width:2;stroke-miterlimit:10;" x1="97.199" y1="325.94" x2="91.91" y2="319.042"/>
				<path style="fill:#92E3A9;stroke:#263238;stroke-miterlimit:10;" d="M93.52,321.112c0,0,0.46-2.759-1.84-5.289
					c-1.383-1.522-9.06-5.737-10.117-2.989C80.414,315.823,88.002,322.721,93.52,321.112z"/>
				
					<line style="fill:none;stroke:#263238;stroke-width:0.5;stroke-miterlimit:10;" x1="93.52" y1="321.112" x2="86.373" y2="315.551"/>
			</g>
			<g>
				
					<line style="fill:none;stroke:#263238;stroke-width:2;stroke-miterlimit:10;" x1="97.199" y1="302.479" x2="91.91" y2="295.581"/>
				<path style="fill:#92E3A9;stroke:#263238;stroke-miterlimit:10;" d="M93.52,297.65c0,0,0.46-2.759-1.84-5.288
					c-1.383-1.522-9.06-5.737-10.117-2.989C80.414,292.362,88.002,299.26,93.52,297.65z"/>
				
					<line style="fill:none;stroke:#263238;stroke-width:0.5;stroke-miterlimit:10;" x1="93.52" y1="297.65" x2="86.373" y2="292.089"/>
			</g>
			<g>
				
					<line style="fill:none;stroke:#263238;stroke-width:2;stroke-miterlimit:10;" x1="97.199" y1="278.915" x2="91.91" y2="272.017"/>
				<path style="fill:#92E3A9;stroke:#263238;stroke-miterlimit:10;" d="M93.52,274.086c0,0,0.46-2.759-1.84-5.289
					c-1.383-1.522-9.06-5.737-10.117-2.989C80.414,268.798,88.002,275.696,93.52,274.086z"/>
				
					<line style="fill:none;stroke:#263238;stroke-width:0.5;stroke-miterlimit:10;" x1="93.52" y1="274.086" x2="86.373" y2="268.525"/>
			</g>
			<g>
				
					<line style="fill:none;stroke:#263238;stroke-width:2;stroke-miterlimit:10;" x1="97.082" y1="400.368" x2="102.37" y2="393.47"/>
				<path style="fill:#92E3A9;stroke:#263238;stroke-miterlimit:10;" d="M100.761,395.54c0,0-0.46-2.759,1.84-5.289
					c1.383-1.522,9.06-5.737,10.117-2.989C113.867,390.251,106.279,397.149,100.761,395.54z"/>
				
					<line style="fill:none;stroke:#263238;stroke-width:0.5;stroke-miterlimit:10;" x1="100.761" y1="395.54" x2="108.33" y2="389.679"/>
			</g>
			<g>
				
					<line style="fill:none;stroke:#263238;stroke-width:2;stroke-miterlimit:10;" x1="97.082" y1="352.626" x2="102.37" y2="345.728"/>
				<path style="fill:#92E3A9;stroke:#263238;stroke-miterlimit:10;" d="M100.761,347.797c0,0-0.46-2.759,1.84-5.288
					c1.383-1.522,9.06-5.737,10.117-2.989C113.867,342.509,106.279,349.407,100.761,347.797z"/>
				
					<line style="fill:none;stroke:#263238;stroke-width:0.5;stroke-miterlimit:10;" x1="100.761" y1="347.797" x2="108.33" y2="341.937"/>
			</g>
			<g>
				
					<line style="fill:none;stroke:#263238;stroke-width:2;stroke-miterlimit:10;" x1="97.082" y1="329.062" x2="102.37" y2="322.164"/>
				<path style="fill:#92E3A9;stroke:#263238;stroke-miterlimit:10;" d="M100.761,324.233c0,0-0.46-2.759,1.84-5.288
					c1.383-1.522,9.06-5.737,10.117-2.989C113.867,318.945,106.279,325.843,100.761,324.233z"/>
				
					<line style="fill:none;stroke:#263238;stroke-width:0.5;stroke-miterlimit:10;" x1="100.761" y1="324.233" x2="108.33" y2="318.373"/>
			</g>
			<g>
				
					<line style="fill:none;stroke:#263238;stroke-width:2;stroke-miterlimit:10;" x1="97.082" y1="297.917" x2="102.37" y2="291.019"/>
				<path style="fill:#92E3A9;stroke:#263238;stroke-miterlimit:10;" d="M100.761,293.088c0,0-0.46-2.759,1.84-5.288
					c1.383-1.522,9.06-5.738,10.117-2.989C113.867,287.8,106.279,294.698,100.761,293.088z"/>
				
					<line style="fill:none;stroke:#263238;stroke-width:0.5;stroke-miterlimit:10;" x1="100.761" y1="293.088" x2="108.33" y2="287.228"/>
			</g>
			<g>
				
					<line style="fill:none;stroke:#263238;stroke-width:2;stroke-miterlimit:10;" x1="97.082" y1="273.431" x2="102.37" y2="266.533"/>
				<path style="fill:#92E3A9;stroke:#263238;stroke-miterlimit:10;" d="M100.761,268.602c0,0-0.46-2.759,1.84-5.288
					c1.383-1.522,9.06-5.738,10.117-2.989C113.867,263.314,106.279,270.212,100.761,268.602z"/>
				
					<line style="fill:none;stroke:#263238;stroke-width:0.5;stroke-miterlimit:10;" x1="100.761" y1="268.602" x2="108.33" y2="262.742"/>
				<path style="fill:#92E3A9;stroke:#263238;stroke-miterlimit:10;" d="M96.765,257.742c0,0-0.46-2.759,1.839-5.288
					c1.383-1.521,9.06-5.737,10.117-2.989C109.871,252.454,102.284,259.352,96.765,257.742z"/>
				
					<line style="fill:none;stroke:#263238;stroke-width:0.5;stroke-miterlimit:10;" x1="96.765" y1="257.742" x2="104.335" y2="251.882"/>
				<path style="fill:#92E3A9;stroke:#263238;stroke-miterlimit:10;" d="M97.135,258.068c0,0-2.792,0.168-5.066-2.384
					c-1.368-1.535-4.756-9.612-1.911-10.375C93.25,244.479,99.314,252.749,97.135,258.068z"/>
				
					<line style="fill:none;stroke:#263238;stroke-width:0.5;stroke-miterlimit:10;" x1="97.135" y1="258.068" x2="92.101" y2="249.925"/>
			</g>
		</g>
		<polygon style="fill:#263238;stroke:#263238;stroke-miterlimit:10;" points="103.643,456.648 86.727,456.648 84.612,413.924 
			105.758,413.924 		"/>
	</g>
	<g>
		<g>
			
				<line style="fill:none;stroke:#263238;stroke-width:2;stroke-miterlimit:10;" x1="644.11" y1="289.526" x2="657.292" y2="415.834"/>
			<g>
				<g>
					
						<line style="fill:none;stroke:#263238;stroke-width:2;stroke-miterlimit:10;" x1="655.168" y1="391.662" x2="649.192" y2="385.35"/>
					<path style="fill:#92E3A9;stroke:#263238;stroke-miterlimit:10;" d="M651.007,387.241c0,0,0.171-2.792-2.378-5.069
						c-1.534-1.37-9.607-4.766-10.373-1.923C637.423,383.342,645.686,389.415,651.007,387.241z"/>
					
						<line style="fill:none;stroke:#263238;stroke-width:0.5;stroke-miterlimit:10;" x1="651.007" y1="387.241" x2="643.322" y2="382.452"/>
				</g>
				<g>
					
						<line style="fill:none;stroke:#263238;stroke-width:2;stroke-miterlimit:10;" x1="656.667" y1="406.027" x2="650.691" y2="399.715"/>
					<path style="fill:#92E3A9;stroke:#263238;stroke-miterlimit:10;" d="M652.506,401.606c0,0,0.171-2.792-2.378-5.069
						c-1.534-1.37-9.606-4.766-10.372-1.923C638.922,397.707,647.185,403.78,652.506,401.606z"/>
					
						<line style="fill:none;stroke:#263238;stroke-width:0.5;stroke-miterlimit:10;" x1="652.506" y1="401.606" x2="644.821" y2="396.817"/>
				</g>
				<g>
					
						<line style="fill:none;stroke:#263238;stroke-width:2;stroke-miterlimit:10;" x1="651.509" y1="356.609" x2="645.534" y2="350.297"/>
					<path style="fill:#92E3A9;stroke:#263238;stroke-miterlimit:10;" d="M647.349,352.189c0,0,0.171-2.792-2.378-5.069
						c-1.534-1.37-9.606-4.766-10.373-1.923C633.765,348.289,642.028,354.362,647.349,352.189z"/>
					
						<line style="fill:none;stroke:#263238;stroke-width:0.5;stroke-miterlimit:10;" x1="647.349" y1="352.189" x2="639.664" y2="347.399"/>
				</g>
				<g>
					
						<line style="fill:none;stroke:#263238;stroke-width:2;stroke-miterlimit:10;" x1="653.009" y1="370.974" x2="647.033" y2="364.662"/>
					<path style="fill:#92E3A9;stroke:#263238;stroke-miterlimit:10;" d="M648.848,366.553c0,0,0.171-2.792-2.378-5.069
						c-1.534-1.37-9.607-4.766-10.372-1.923C635.264,362.654,643.527,368.727,648.848,366.553z"/>
					
						<line style="fill:none;stroke:#263238;stroke-width:0.5;stroke-miterlimit:10;" x1="648.848" y1="366.553" x2="641.163" y2="361.764"/>
				</g>
				<g>
					
						<line style="fill:none;stroke:#263238;stroke-width:2;stroke-miterlimit:10;" x1="649.074" y1="333.274" x2="643.098" y2="326.963"/>
					<path style="fill:#92E3A9;stroke:#263238;stroke-miterlimit:10;" d="M644.914,328.854c0,0,0.171-2.792-2.378-5.069
						c-1.534-1.37-9.607-4.766-10.373-1.922C631.33,324.954,639.592,331.027,644.914,328.854z"/>
					
						<line style="fill:none;stroke:#263238;stroke-width:0.5;stroke-miterlimit:10;" x1="644.914" y1="328.854" x2="637.229" y2="324.065"/>
				</g>
				<g>
					
						<line style="fill:none;stroke:#263238;stroke-width:2;stroke-miterlimit:10;" x1="646.628" y1="309.838" x2="640.652" y2="303.526"/>
					<path style="fill:#92E3A9;stroke:#263238;stroke-miterlimit:10;" d="M642.468,305.417c0,0,0.171-2.792-2.378-5.069
						c-1.534-1.37-9.606-4.766-10.372-1.923C628.884,301.518,637.147,307.591,642.468,305.417z"/>
					
						<line style="fill:none;stroke:#263238;stroke-width:0.5;stroke-miterlimit:10;" x1="642.468" y1="305.417" x2="634.783" y2="300.628"/>
				</g>
				<g>
					
						<line style="fill:none;stroke:#263238;stroke-width:2;stroke-miterlimit:10;" x1="654.163" y1="383.163" x2="658.707" y2="375.753"/>
					<path style="fill:#92E3A9;stroke:#263238;stroke-miterlimit:10;" d="M657.321,377.978c0,0-0.744-2.697,1.281-5.451
						c1.218-1.657,8.415-6.647,9.752-4.023C669.807,371.358,662.977,379.006,657.321,377.978z"/>
					
						<line style="fill:none;stroke:#263238;stroke-width:0.5;stroke-miterlimit:10;" x1="657.321" y1="377.978" x2="664.241" y2="371.364"/>
				</g>
				<g>
					
						<line style="fill:none;stroke:#263238;stroke-width:2;stroke-miterlimit:10;" x1="650.218" y1="345.361" x2="654.762" y2="337.952"/>
					<path style="fill:#92E3A9;stroke:#263238;stroke-miterlimit:10;" d="M653.376,340.177c0,0-0.744-2.697,1.281-5.451
						c1.218-1.657,8.415-6.647,9.752-4.023C665.862,333.557,659.032,341.205,653.376,340.177z"/>
					
						<line style="fill:none;stroke:#263238;stroke-width:0.5;stroke-miterlimit:10;" x1="653.376" y1="340.177" x2="660.296" y2="333.563"/>
				</g>
				<g>
					
						<line style="fill:none;stroke:#263238;stroke-width:2;stroke-miterlimit:10;" x1="648.485" y1="328.749" x2="653.028" y2="321.34"/>
					<path style="fill:#92E3A9;stroke:#263238;stroke-miterlimit:10;" d="M651.642,323.565c0,0-0.744-2.697,1.281-5.451
						c1.218-1.657,8.415-6.647,9.752-4.023C664.129,316.944,657.298,324.593,651.642,323.565z"/>
					
						<line style="fill:none;stroke:#263238;stroke-width:0.5;stroke-miterlimit:10;" x1="651.642" y1="323.565" x2="658.563" y2="316.951"/>
				</g>
				<g>
					
						<line style="fill:none;stroke:#263238;stroke-width:2;stroke-miterlimit:10;" x1="645.943" y1="304.395" x2="650.487" y2="296.986"/>
					<path style="fill:#92E3A9;stroke:#263238;stroke-miterlimit:10;" d="M649.101,299.211c0,0-0.744-2.697,1.281-5.451
						c1.218-1.657,8.415-6.647,9.752-4.023C661.587,292.591,654.756,300.239,649.101,299.211z"/>
					
						<line style="fill:none;stroke:#263238;stroke-width:0.5;stroke-miterlimit:10;" x1="649.101" y1="299.211" x2="656.021" y2="292.597"/>
					<path style="fill:#92E3A9;stroke:#263238;stroke-miterlimit:10;" d="M644,288.825c0,0-0.744-2.696,1.281-5.451
						c1.218-1.657,8.415-6.647,9.752-4.023C656.486,282.204,649.655,289.853,644,288.825z"/>
					
						<line style="fill:none;stroke:#263238;stroke-width:0.5;stroke-miterlimit:10;" x1="644" y1="288.825" x2="650.92" y2="282.21"/>
					<path style="fill:#92E3A9;stroke:#263238;stroke-miterlimit:10;" d="M644.401,289.11c0,0-2.76,0.457-5.286-1.845
						c-1.52-1.385-5.728-9.066-2.978-10.12C639.126,275.998,646.016,283.593,644.401,289.11z"/>
					
						<line style="fill:none;stroke:#263238;stroke-width:0.5;stroke-miterlimit:10;" x1="644.401" y1="289.11" x2="638.548" y2="281.534"/>
				</g>
			</g>
		</g>
		<g>
			
				<line style="fill:none;stroke:#263238;stroke-width:2;stroke-miterlimit:10;" x1="678.878" y1="306.921" x2="665.77" y2="433.237"/>
			<g>
				<g>
					
						<line style="fill:none;stroke:#263238;stroke-width:2;stroke-miterlimit:10;" x1="668.668" y1="409.145" x2="664.12" y2="401.738"/>
					<path style="fill:#92E3A9;stroke:#263238;stroke-miterlimit:10;" d="M665.507,403.963c0,0,0.742-2.697-1.284-5.45
						c-1.219-1.656-8.42-6.642-9.754-4.017C653.017,397.35,659.852,404.994,665.507,403.963z"/>
					
						<line style="fill:none;stroke:#263238;stroke-width:0.5;stroke-miterlimit:10;" x1="665.507" y1="403.963" x2="658.973" y2="397.694"/>
				</g>
				<g>
					
						<line style="fill:none;stroke:#263238;stroke-width:2;stroke-miterlimit:10;" x1="672.306" y1="374.09" x2="667.758" y2="366.683"/>
					<path style="fill:#92E3A9;stroke:#263238;stroke-miterlimit:10;" d="M669.145,368.907c0,0,0.742-2.697-1.284-5.45
						c-1.219-1.656-8.419-6.642-9.754-4.017C656.655,362.295,663.49,369.939,669.145,368.907z"/>
					
						<line style="fill:none;stroke:#263238;stroke-width:0.5;stroke-miterlimit:10;" x1="669.145" y1="368.907" x2="662.61" y2="362.638"/>
				</g>
				<g>
					
						<line style="fill:none;stroke:#263238;stroke-width:2;stroke-miterlimit:10;" x1="670.815" y1="388.456" x2="666.267" y2="381.049"/>
					<path style="fill:#92E3A9;stroke:#263238;stroke-miterlimit:10;" d="M667.654,383.273c0,0,0.742-2.697-1.284-5.45
						c-1.219-1.656-8.419-6.642-9.754-4.017C655.164,376.66,661.999,384.305,667.654,383.273z"/>
					
						<line style="fill:none;stroke:#263238;stroke-width:0.5;stroke-miterlimit:10;" x1="667.654" y1="383.273" x2="661.12" y2="377.004"/>
				</g>
				<g>
					
						<line style="fill:none;stroke:#263238;stroke-width:2;stroke-miterlimit:10;" x1="674.727" y1="350.754" x2="670.179" y2="343.347"/>
					<path style="fill:#92E3A9;stroke:#263238;stroke-miterlimit:10;" d="M671.566,345.571c0,0,0.742-2.697-1.284-5.45
						c-1.219-1.656-8.419-6.642-9.755-4.017C659.076,338.958,665.911,346.603,671.566,345.571z"/>
					
						<line style="fill:none;stroke:#263238;stroke-width:0.5;stroke-miterlimit:10;" x1="671.566" y1="345.571" x2="665.032" y2="339.302"/>
				</g>
				<g>
					
						<line style="fill:none;stroke:#263238;stroke-width:2;stroke-miterlimit:10;" x1="677.159" y1="327.316" x2="672.611" y2="319.909"/>
					<path style="fill:#92E3A9;stroke:#263238;stroke-miterlimit:10;" d="M673.999,322.133c0,0,0.742-2.697-1.284-5.45
						c-1.219-1.657-8.419-6.642-9.754-4.018C661.508,315.52,668.343,323.165,673.999,322.133z"/>
					
						<line style="fill:none;stroke:#263238;stroke-width:0.5;stroke-miterlimit:10;" x1="673.999" y1="322.133" x2="667.464" y2="315.864"/>
				</g>
				<g>
					
						<line style="fill:none;stroke:#263238;stroke-width:2;stroke-miterlimit:10;" x1="669.435" y1="400.621" x2="675.407" y2="394.306"/>
					<path style="fill:#92E3A9;stroke:#263238;stroke-miterlimit:10;" d="M673.593,396.198c0,0-0.173-2.792,2.376-5.07
						c1.533-1.371,9.603-4.772,10.371-1.929C687.175,392.29,678.916,398.368,673.593,396.198z"/>
					
						<line style="fill:none;stroke:#263238;stroke-width:0.5;stroke-miterlimit:10;" x1="673.593" y1="396.198" x2="681.727" y2="391.15"/>
				</g>
				<g>
					
						<line style="fill:none;stroke:#263238;stroke-width:2;stroke-miterlimit:10;" x1="673.358" y1="362.817" x2="679.33" y2="356.502"/>
					<path style="fill:#92E3A9;stroke:#263238;stroke-miterlimit:10;" d="M677.516,358.394c0,0-0.173-2.792,2.375-5.07
						c1.533-1.371,9.604-4.772,10.371-1.929C691.098,354.487,682.838,360.565,677.516,358.394z"/>
					
						<line style="fill:none;stroke:#263238;stroke-width:0.5;stroke-miterlimit:10;" x1="677.516" y1="358.394" x2="685.649" y2="353.346"/>
				</g>
				<g>
					
						<line style="fill:none;stroke:#263238;stroke-width:2;stroke-miterlimit:10;" x1="675.082" y1="346.204" x2="681.054" y2="339.889"/>
					<path style="fill:#92E3A9;stroke:#263238;stroke-miterlimit:10;" d="M679.24,341.781c0,0-0.172-2.792,2.376-5.07
						c1.533-1.371,9.604-4.772,10.371-1.929C692.821,337.874,684.562,343.952,679.24,341.781z"/>
					
						<line style="fill:none;stroke:#263238;stroke-width:0.5;stroke-miterlimit:10;" x1="679.24" y1="341.781" x2="687.373" y2="336.733"/>
				</g>
				<g>
					
						<line style="fill:none;stroke:#263238;stroke-width:2;stroke-miterlimit:10;" x1="677.609" y1="321.849" x2="683.581" y2="315.534"/>
					<path style="fill:#92E3A9;stroke:#263238;stroke-miterlimit:10;" d="M681.767,317.426c0,0-0.173-2.792,2.375-5.07
						c1.533-1.371,9.604-4.771,10.371-1.929C695.349,313.518,687.09,319.596,681.767,317.426z"/>
					
						<line style="fill:none;stroke:#263238;stroke-width:0.5;stroke-miterlimit:10;" x1="681.767" y1="317.426" x2="689.901" y2="312.378"/>
					<path style="fill:#92E3A9;stroke:#263238;stroke-miterlimit:10;" d="M678.914,306.212c0,0-0.173-2.792,2.375-5.07
						c1.533-1.371,9.603-4.772,10.371-1.929C692.495,302.304,684.236,308.382,678.914,306.212z"/>
					
						<line style="fill:none;stroke:#263238;stroke-width:0.5;stroke-miterlimit:10;" x1="678.914" y1="306.212" x2="687.047" y2="301.164"/>
					<path style="fill:#92E3A9;stroke:#263238;stroke-miterlimit:10;" d="M679.247,306.573c0,0-2.795-0.121-4.793-2.894
						c-1.203-1.668-3.738-10.051-0.831-10.516C676.786,292.657,681.964,301.508,679.247,306.573z"/>
					
						<line style="fill:none;stroke:#263238;stroke-width:0.5;stroke-miterlimit:10;" x1="679.247" y1="306.573" x2="675.08" y2="297.955"/>
				</g>
			</g>
		</g>
		
			<line style="fill:none;stroke:#263238;stroke-width:2;stroke-miterlimit:10;" x1="663.857" y1="255.485" x2="663.857" y2="415.219"/>
		<g>
			<g>
				
					<line style="fill:none;stroke:#263238;stroke-width:2;stroke-miterlimit:10;" x1="663.984" y1="391.202" x2="658.696" y2="384.304"/>
				<path style="fill:#92E3A9;stroke:#263238;stroke-miterlimit:10;" d="M660.305,386.373c0,0,0.46-2.759-1.839-5.288
					c-1.384-1.522-9.06-5.737-10.117-2.989C647.199,381.085,654.787,387.983,660.305,386.373z"/>
				
					<line style="fill:none;stroke:#263238;stroke-width:0.5;stroke-miterlimit:10;" x1="660.305" y1="386.373" x2="653.159" y2="380.812"/>
			</g>
			<g>
				
					<line style="fill:none;stroke:#263238;stroke-width:2;stroke-miterlimit:10;" x1="663.984" y1="361.183" x2="658.696" y2="354.285"/>
				<path style="fill:#92E3A9;stroke:#263238;stroke-miterlimit:10;" d="M660.305,356.355c0,0,0.46-2.759-1.839-5.288
					c-1.384-1.522-9.06-5.737-10.117-2.989C647.199,351.066,654.787,357.964,660.305,356.355z"/>
				
					<line style="fill:none;stroke:#263238;stroke-width:0.5;stroke-miterlimit:10;" x1="660.305" y1="356.355" x2="653.159" y2="350.794"/>
			</g>
			<g>
				
					<line style="fill:none;stroke:#263238;stroke-width:2;stroke-miterlimit:10;" x1="663.984" y1="325.94" x2="658.696" y2="319.042"/>
				<path style="fill:#92E3A9;stroke:#263238;stroke-miterlimit:10;" d="M660.305,321.112c0,0,0.46-2.759-1.839-5.289
					c-1.384-1.522-9.06-5.737-10.117-2.989C647.199,315.823,654.787,322.721,660.305,321.112z"/>
				
					<line style="fill:none;stroke:#263238;stroke-width:0.5;stroke-miterlimit:10;" x1="660.305" y1="321.112" x2="653.159" y2="315.551"/>
			</g>
			<g>
				
					<line style="fill:none;stroke:#263238;stroke-width:2;stroke-miterlimit:10;" x1="663.984" y1="302.479" x2="658.696" y2="295.581"/>
				<path style="fill:#92E3A9;stroke:#263238;stroke-miterlimit:10;" d="M660.305,297.65c0,0,0.46-2.759-1.839-5.288
					c-1.384-1.522-9.06-5.737-10.117-2.989C647.199,292.362,654.787,299.26,660.305,297.65z"/>
				
					<line style="fill:none;stroke:#263238;stroke-width:0.5;stroke-miterlimit:10;" x1="660.305" y1="297.65" x2="653.159" y2="292.089"/>
			</g>
			<g>
				
					<line style="fill:none;stroke:#263238;stroke-width:2;stroke-miterlimit:10;" x1="663.984" y1="278.915" x2="658.696" y2="272.017"/>
				<path style="fill:#92E3A9;stroke:#263238;stroke-miterlimit:10;" d="M660.305,274.086c0,0,0.46-2.759-1.839-5.289
					c-1.384-1.522-9.06-5.737-10.117-2.989C647.199,268.798,654.787,275.696,660.305,274.086z"/>
				
					<line style="fill:none;stroke:#263238;stroke-width:0.5;stroke-miterlimit:10;" x1="660.305" y1="274.086" x2="653.159" y2="268.525"/>
			</g>
			<g>
				
					<line style="fill:none;stroke:#263238;stroke-width:2;stroke-miterlimit:10;" x1="663.867" y1="400.368" x2="669.156" y2="393.47"/>
				<path style="fill:#92E3A9;stroke:#263238;stroke-miterlimit:10;" d="M667.546,395.54c0,0-0.46-2.759,1.84-5.289
					c1.383-1.522,9.06-5.737,10.117-2.989C680.652,390.251,673.065,397.149,667.546,395.54z"/>
				
					<line style="fill:none;stroke:#263238;stroke-width:0.5;stroke-miterlimit:10;" x1="667.546" y1="395.54" x2="675.116" y2="389.679"/>
			</g>
			<g>
				
					<line style="fill:none;stroke:#263238;stroke-width:2;stroke-miterlimit:10;" x1="663.867" y1="352.626" x2="669.156" y2="345.728"/>
				<path style="fill:#92E3A9;stroke:#263238;stroke-miterlimit:10;" d="M667.546,347.797c0,0-0.46-2.759,1.84-5.288
					c1.383-1.522,9.06-5.737,10.117-2.989C680.652,342.509,673.065,349.407,667.546,347.797z"/>
				
					<line style="fill:none;stroke:#263238;stroke-width:0.5;stroke-miterlimit:10;" x1="667.546" y1="347.797" x2="675.116" y2="341.937"/>
			</g>
			<g>
				
					<line style="fill:none;stroke:#263238;stroke-width:2;stroke-miterlimit:10;" x1="663.867" y1="329.062" x2="669.156" y2="322.164"/>
				<path style="fill:#92E3A9;stroke:#263238;stroke-miterlimit:10;" d="M667.546,324.233c0,0-0.46-2.759,1.84-5.288
					c1.383-1.522,9.06-5.737,10.117-2.989C680.652,318.945,673.065,325.843,667.546,324.233z"/>
				
					<line style="fill:none;stroke:#263238;stroke-width:0.5;stroke-miterlimit:10;" x1="667.546" y1="324.233" x2="675.116" y2="318.373"/>
			</g>
			<g>
				
					<line style="fill:none;stroke:#263238;stroke-width:2;stroke-miterlimit:10;" x1="663.867" y1="297.917" x2="669.156" y2="291.019"/>
				<path style="fill:#92E3A9;stroke:#263238;stroke-miterlimit:10;" d="M667.546,293.088c0,0-0.46-2.759,1.84-5.288
					c1.383-1.522,9.06-5.738,10.117-2.989C680.652,287.8,673.065,294.698,667.546,293.088z"/>
				
					<line style="fill:none;stroke:#263238;stroke-width:0.5;stroke-miterlimit:10;" x1="667.546" y1="293.088" x2="675.116" y2="287.228"/>
			</g>
			<g>
				
					<line style="fill:none;stroke:#263238;stroke-width:2;stroke-miterlimit:10;" x1="663.867" y1="273.431" x2="669.156" y2="266.533"/>
				<path style="fill:#92E3A9;stroke:#263238;stroke-miterlimit:10;" d="M667.546,268.602c0,0-0.46-2.759,1.84-5.288
					c1.383-1.522,9.06-5.738,10.117-2.989C680.652,263.314,673.065,270.212,667.546,268.602z"/>
				
					<line style="fill:none;stroke:#263238;stroke-width:0.5;stroke-miterlimit:10;" x1="667.546" y1="268.602" x2="675.116" y2="262.742"/>
				<path style="fill:#92E3A9;stroke:#263238;stroke-miterlimit:10;" d="M663.551,257.742c0,0-0.46-2.759,1.84-5.288
					c1.383-1.521,9.06-5.737,10.117-2.989C676.657,252.454,669.069,259.352,663.551,257.742z"/>
				
					<line style="fill:none;stroke:#263238;stroke-width:0.5;stroke-miterlimit:10;" x1="663.551" y1="257.742" x2="671.12" y2="251.882"/>
				<path style="fill:#92E3A9;stroke:#263238;stroke-miterlimit:10;" d="M663.92,258.068c0,0-2.792,0.168-5.066-2.384
					c-1.368-1.535-4.756-9.612-1.911-10.375C660.035,244.479,666.099,252.749,663.92,258.068z"/>
				
					<line style="fill:none;stroke:#263238;stroke-width:0.5;stroke-miterlimit:10;" x1="663.92" y1="258.068" x2="658.886" y2="249.925"/>
			</g>
		</g>
		<polygon style="fill:#263238;stroke:#263238;stroke-miterlimit:10;" points="670.429,456.648 653.512,456.648 651.397,413.924 
			672.543,413.924 		"/>
	</g>
</g>
<g id="Bulb">
	<g>
		<g>
			<path style="fill:#FFFFFF;stroke:#263238;stroke-linecap:round;stroke-linejoin:round;stroke-miterlimit:10;" d="
				M676.948,119.003c0-20.361-17.208-36.703-37.874-35.277c-17.23,1.189-31.276,15.004-32.724,32.215
				c-0.824,9.793,2.348,18.835,8.063,25.685c5.209,6.244,8.056,14.12,8.056,22.252v4.845H660.7v-4.846
				c0-8.122,2.831-15.998,8.039-22.231C673.863,135.513,676.948,127.62,676.948,119.003z"/>
			
				<rect x="622.469" y="168.733" style="fill:#92E3A9;stroke:#263238;stroke-linecap:round;stroke-linejoin:round;stroke-miterlimit:10;" width="38.231" height="9.457"/>
			<path style="fill:#92E3A9;stroke:#263238;stroke-linecap:round;stroke-linejoin:round;stroke-miterlimit:10;" d="M655.974,187.67
				h-28.78c-2.61,0-4.725-2.116-4.725-4.725v-4.732H660.7v4.732C660.7,185.554,658.584,187.67,655.974,187.67z"/>
			<path style="fill:#263238;stroke:#263238;stroke-linecap:round;stroke-linejoin:round;stroke-miterlimit:10;" d="
				M649.466,197.115h-15.763c-3.54,0-6.41-2.87-6.41-6.41v-3.047h28.582v3.047C655.875,194.245,653.006,197.115,649.466,197.115z"/>
		</g>
		<g>
			
				<line style="fill:none;stroke:#263238;stroke-linecap:round;stroke-linejoin:round;stroke-miterlimit:10;" x1="681.968" y1="119.188" x2="698.166" y2="119.188"/>
			
				<line style="fill:none;stroke:#263238;stroke-linecap:round;stroke-linejoin:round;stroke-miterlimit:10;" x1="583.484" y1="119.188" x2="599.891" y2="119.188"/>
			
				<line style="fill:none;stroke:#263238;stroke-linecap:round;stroke-linejoin:round;stroke-miterlimit:10;" x1="640.825" y1="78.091" x2="640.825" y2="61.847"/>
			
				<line style="fill:none;stroke:#263238;stroke-linecap:round;stroke-linejoin:round;stroke-miterlimit:10;" x1="670.189" y1="89.824" x2="681.371" y2="78.642"/>
			
				<line style="fill:none;stroke:#263238;stroke-linecap:round;stroke-linejoin:round;stroke-miterlimit:10;" x1="600.279" y1="159.734" x2="611.624" y2="148.389"/>
			
				<line style="fill:none;stroke:#263238;stroke-linecap:round;stroke-linejoin:round;stroke-miterlimit:10;" x1="611.138" y1="89.501" x2="600.279" y2="78.642"/>
			
				<line style="fill:none;stroke:#263238;stroke-linecap:round;stroke-linejoin:round;stroke-miterlimit:10;" x1="681.371" y1="159.734" x2="670.558" y2="148.921"/>
		</g>
	</g>
</g>
<g id="Money">
	<g>
		<g>
			<polygon style="fill:#92E3A9;stroke:#263238;stroke-linecap:round;stroke-linejoin:round;stroke-miterlimit:10;" points="
				432.553,107.116 385.736,42.39 338.919,107.116 358.177,107.116 358.177,179.033 413.296,179.033 413.296,107.116 			"/>
		</g>
		<g>
			
				<ellipse transform="matrix(0.9872 -0.1596 0.1596 0.9872 -22.2043 63.6849)" style="fill:#FFFFFF;stroke:#263238;stroke-linecap:round;stroke-linejoin:round;stroke-miterlimit:10;" cx="385.413" cy="170.091" rx="48.257" ry="48.258"/>
			
				<ellipse transform="matrix(0.4502 -0.8929 0.8929 0.4502 60.0212 437.6614)" style="fill:#FFFFFF;stroke:#263238;stroke-linecap:round;stroke-linejoin:round;stroke-miterlimit:10;" cx="385.413" cy="170.091" rx="41.141" ry="41.141"/>
			<path style="fill:#92E3A9;stroke:#263238;stroke-linecap:round;stroke-linejoin:round;stroke-miterlimit:10;" d="
				M399.152,176.269c0-10.765-15.259-11.002-15.259-15.498c0-2.365,1.241-3.076,3.785-3.076c2.188,0,4.021,0.947,6.152,2.84
				l5.027-5.797c-2.337-2.48-5.19-4.323-8.931-4.952v-6.05h-6.627v6.229c-5.7,1.233-9.109,5.299-9.109,11.28
				c0,10.352,15.262,11.002,15.262,15.734c0,2.307-1.182,3.314-4.139,3.314c-2.485,0-4.97-0.947-8.165-3.314l-4.376,6.862
				c2.933,2.64,7.146,4.051,10.528,4.468v5.944h6.627v-6.359C396.103,186.425,399.152,181.964,399.152,176.269z"/>
		</g>
	</g>
</g>
<g id="Charts">
	<g>
		<g>
			<g>
				
					<ellipse transform="matrix(0.984 -0.1784 0.1784 0.984 -16.3707 26.8325)" style="fill:#FFFFFF;stroke:#263238;stroke-linecap:round;stroke-linejoin:round;stroke-miterlimit:10;" cx="140.994" cy="104.432" rx="31.418" ry="31.418"/>
				<path style="fill:#92E3A9;stroke:#263238;stroke-linecap:round;stroke-linejoin:round;stroke-miterlimit:10;" d="
					M149.873,74.307l-8.879,30.125h31.418C172.412,90.166,162.897,78.141,149.873,74.307z"/>
			</g>
			
				<polyline style="fill:none;stroke:#263238;stroke-width:0.5;stroke-linecap:round;stroke-linejoin:round;stroke-miterlimit:10;" points="
				160.507,84.612 172.984,69.906 183.68,69.906 			"/>
			<g>
				
					<line style="fill:none;stroke:#263238;stroke-width:0.5;stroke-linecap:round;stroke-linejoin:round;stroke-miterlimit:10;" x1="191.255" y1="70.352" x2="207.298" y2="70.352"/>
				
					<line style="fill:none;stroke:#263238;stroke-width:0.5;stroke-linecap:round;stroke-linejoin:round;stroke-miterlimit:10;" x1="191.255" y1="74.362" x2="207.298" y2="74.362"/>
				
					<line style="fill:none;stroke:#263238;stroke-width:0.5;stroke-linecap:round;stroke-linejoin:round;stroke-miterlimit:10;" x1="191.255" y1="78.373" x2="207.298" y2="78.373"/>
				
					<line style="fill:none;stroke:#263238;stroke-width:0.5;stroke-linecap:round;stroke-linejoin:round;stroke-miterlimit:10;" x1="191.255" y1="82.383" x2="207.298" y2="82.383"/>
			</g>
		</g>
		<g>
			<g>
				
					<rect x="101.799" y="169.073" style="fill:#263238;stroke:#263238;stroke-width:0.5;stroke-linecap:round;stroke-linejoin:round;stroke-miterlimit:10;" width="9.142" height="27.271"/>
				
					<rect x="116.164" y="178.884" style="fill:#92E3A9;stroke:#263238;stroke-linecap:round;stroke-linejoin:round;stroke-miterlimit:10;" width="9.142" height="17.461"/>
				
					<rect x="130.53" y="163.102" style="fill:#263238;stroke:#263238;stroke-width:0.5;stroke-linecap:round;stroke-linejoin:round;stroke-miterlimit:10;" width="9.142" height="33.243"/>
				
					<rect x="144.895" y="169.978" style="fill:#92E3A9;stroke:#263238;stroke-linecap:round;stroke-linejoin:round;stroke-miterlimit:10;" width="9.142" height="26.367"/>
				
					<rect x="159.261" y="163.955" style="fill:#263238;stroke:#263238;stroke-width:0.5;stroke-linecap:round;stroke-linejoin:round;stroke-miterlimit:10;" width="9.142" height="32.39"/>
				
					<rect x="173.626" y="144.76" style="fill:#92E3A9;stroke:#263238;stroke-linecap:round;stroke-linejoin:round;stroke-miterlimit:10;" width="9.142" height="51.585"/>
			</g>
			<g>
				
					<line style="fill:none;stroke:#263238;stroke-width:0.5;stroke-linecap:round;stroke-linejoin:round;stroke-miterlimit:10;" x1="193.038" y1="144.216" x2="198.386" y2="144.216"/>
				
					<line style="fill:none;stroke:#263238;stroke-width:0.5;stroke-linecap:round;stroke-linejoin:round;stroke-miterlimit:10;" x1="193.038" y1="154.644" x2="198.386" y2="154.644"/>
				
					<line style="fill:none;stroke:#263238;stroke-width:0.5;stroke-linecap:round;stroke-linejoin:round;stroke-miterlimit:10;" x1="193.038" y1="165.072" x2="198.386" y2="165.072"/>
				
					<line style="fill:none;stroke:#263238;stroke-width:0.5;stroke-linecap:round;stroke-linejoin:round;stroke-miterlimit:10;" x1="193.038" y1="175.499" x2="198.386" y2="175.499"/>
				
					<line style="fill:none;stroke:#263238;stroke-width:0.5;stroke-linecap:round;stroke-linejoin:round;stroke-miterlimit:10;" x1="193.038" y1="185.927" x2="198.386" y2="185.927"/>
				
					<line style="fill:none;stroke:#263238;stroke-width:0.5;stroke-linecap:round;stroke-linejoin:round;stroke-miterlimit:10;" x1="193.038" y1="196.355" x2="198.386" y2="196.355"/>
			</g>
		</g>
		<g>
			<polyline style="fill:none;stroke:#263238;stroke-linecap:round;stroke-linejoin:round;stroke-miterlimit:10;" points="
				107.026,159.02 121.034,167.493 135.596,151.889 149.987,153.102 163.931,147.568 179.705,126.811 			"/>
			<path style="fill:#263238;" d="M108.793,159.02c0-0.976-0.791-1.767-1.767-1.767s-1.766,0.791-1.766,1.767
				s0.791,1.766,1.766,1.766S108.793,159.995,108.793,159.02z"/>
			<path style="fill:#263238;" d="M122.801,167.493c0-0.976-0.791-1.767-1.766-1.767s-1.766,0.791-1.766,1.767
				c0,0.975,0.791,1.766,1.766,1.766S122.801,168.469,122.801,167.493z"/>
			<path style="fill:#263238;" d="M137.363,151.889c0-0.975-0.791-1.766-1.766-1.766c-0.976,0-1.766,0.791-1.766,1.766
				c0,0.976,0.791,1.766,1.766,1.766C136.572,153.656,137.363,152.865,137.363,151.889z"/>
			<path style="fill:#263238;" d="M151.754,153.102c0-0.976-0.791-1.766-1.766-1.766c-0.976,0-1.766,0.791-1.766,1.766
				s0.791,1.766,1.766,1.766C150.963,154.868,151.754,154.078,151.754,153.102z"/>
			<path style="fill:#263238;" d="M165.697,147.289c0-0.976-0.791-1.766-1.766-1.766s-1.767,0.791-1.767,1.766
				s0.791,1.766,1.767,1.766S165.697,148.265,165.697,147.289z"/>
			<path style="fill:#263238;" d="M181.472,126.811c0-0.976-0.791-1.766-1.766-1.766c-0.976,0-1.766,0.791-1.766,1.766
				s0.791,1.766,1.766,1.766C180.681,128.577,181.472,127.786,181.472,126.811z"/>
		</g>
	</g>
</g>
<g id="Character_2">
	<g>
		<g>
			<g>
				
					<rect x="529.983" y="358.507" transform="matrix(-1 -1.224647e-16 1.224647e-16 -1 1065.6661 771.9327)" style="fill:#263238;stroke:#263238;stroke-linecap:round;stroke-linejoin:round;stroke-miterlimit:10;" width="5.7" height="54.918"/>
				
					<rect x="561.509" y="306.309" transform="matrix(-0.9932 -0.1161 0.1161 -0.9932 1090.5586 731.0566)" style="fill:#263238;stroke:#263238;stroke-linecap:round;stroke-linejoin:round;stroke-miterlimit:10;" width="10.122" height="54.918"/>
				<polygon style="fill:#8C8C8C;stroke:#263238;stroke-linecap:round;stroke-linejoin:round;stroke-miterlimit:10;" points="
					525.598,415.665 525.598,406.41 540.068,406.41 540.068,415.751 597.945,438.979 597.945,449.941 593.999,449.941 
					593.999,441.61 532.625,427.644 472.878,441.61 472.878,449.941 469.036,449.941 469.036,438.979 				"/>
				
					<rect x="518.583" y="358.507" transform="matrix(-1 -1.224647e-16 1.224647e-16 -1 1065.6661 734.5509)" style="fill:#263238;stroke:#263238;stroke-linecap:round;stroke-linejoin:round;stroke-miterlimit:10;" width="28.5" height="17.536"/>
				<g>
					<path style="fill:#263238;stroke:#263238;stroke-linecap:round;stroke-linejoin:round;stroke-miterlimit:10;" d="
						M597.945,450.38c0-3.39,2.748-6.139,6.138-6.139c3.39,0,6.139,2.748,6.139,6.139s-2.748,6.139-6.139,6.139
						C600.694,456.518,597.945,453.77,597.945,450.38z"/>
					<path style="fill:#FFFFFF;stroke:#263238;stroke-linecap:round;stroke-linejoin:round;stroke-miterlimit:10;" d="
						M601.453,450.38c0-1.453,1.178-2.631,2.631-2.631s2.631,1.178,2.631,2.631c0,1.453-1.178,2.631-2.631,2.631
						S601.453,451.833,601.453,450.38z"/>
				</g>
				<g>
					<path style="fill:#263238;stroke:#263238;stroke-linecap:round;stroke-linejoin:round;stroke-miterlimit:10;" d="
						M456.32,450.38c0-3.39,2.748-6.139,6.139-6.139c3.39,0,6.139,2.748,6.139,6.139s-2.748,6.139-6.139,6.139
						C459.069,456.518,456.32,453.77,456.32,450.38z"/>
					
						<circle style="fill:#FFFFFF;stroke:#263238;stroke-linecap:round;stroke-linejoin:round;stroke-miterlimit:10;" cx="462.459" cy="450.38" r="2.631"/>
				</g>
				<polygon style="fill:#8C8C8C;stroke:#263238;stroke-linecap:round;stroke-linejoin:round;stroke-miterlimit:10;" points="
					530.202,450.257 535.025,450.257 537.437,417.371 527.791,417.371 				"/>
				
					<rect x="530.421" y="443.241" transform="matrix(-1 -1.224647e-16 1.224647e-16 -1 1065.666 900.0747)" style="fill:#263238;stroke:#263238;stroke-linecap:round;stroke-linejoin:round;stroke-miterlimit:10;" width="4.823" height="13.592"/>
			</g>
			<g>
				<g>
					<path style="fill:#8C8C8C;stroke:#263238;stroke-linecap:round;stroke-linejoin:round;stroke-miterlimit:10;" d="
						M570.801,333.262L570.801,333.262c11.827,1.138,22.338-7.527,23.476-19.354l6.732-69.949
						c1.138-11.827-7.527-22.338-19.354-23.476h0c-11.827-1.138-22.338,7.527-23.476,19.354l-6.732,69.949
						C550.309,321.613,558.974,332.123,570.801,333.262z"/>
					<path style="fill:#8C8C8C;stroke:#263238;stroke-linecap:round;stroke-linejoin:round;stroke-miterlimit:10;" d="
						M565.7,332.771L565.7,332.771c11.827,1.138,22.338-7.527,23.476-19.354l6.732-69.949c1.138-11.827-7.527-22.338-19.354-23.476
						h0c-11.827-1.138-22.338,7.527-23.476,19.354l-6.732,69.948C545.208,321.122,553.873,331.633,565.7,332.771z"/>
				</g>
				<path id="XMLID_4_" style="fill:#8C8C8C;stroke:#263238;stroke-linecap:round;stroke-linejoin:round;stroke-miterlimit:10;" d="
					M472.094,364l100.353,2.638c2.341,0.074,4.299-1.764,4.373-4.105l0.507-16.064c0.074-2.341-1.764-4.299-4.105-4.373
					l-100.353-2.638c-2.341-0.074-4.299,1.764-4.373,4.105l-0.507,16.064C467.915,361.968,469.753,363.926,472.094,364z"/>
				<path id="XMLID_3_" style="fill:#8C8C8C;stroke:#263238;stroke-linecap:round;stroke-linejoin:round;stroke-miterlimit:10;" d="
					M514.041,364.794l58.407,1.844c2.341,0.074,4.299-1.764,4.373-4.105l0.507-16.064c0.074-2.341-1.764-4.299-4.105-4.373
					l-58.407-1.844c-2.341-0.074-4.299,1.764-4.373,4.105l-0.507,16.064C509.862,362.762,511.7,364.72,514.041,364.794z"/>
			</g>
		</g>
		<g>
			<path style="fill:#263238;stroke:#263238;stroke-linecap:round;stroke-linejoin:round;stroke-miterlimit:10;" d="
				M465.405,432.717l-0.493,3.7c0,0-4.44,8.88-6.167,10.36c-1.727,1.48-12.581,6.167-14.554,6.907
				c-1.973,0.74,1.48,2.96,6.167,3.207c4.687,0.247,13.321,0.247,16.281-0.493c2.96-0.74,8.634-4.934,9.867-5.18l0.987,3.207
				c0,0,5.427-1.973,7.4-2.467c1.974-0.493,5.18-2.96,5.18-2.96s-2.467-7.4-3.947-10.114c-1.48-2.713-3.453-4.44-3.453-4.44
				l-3.7-4.44L465.405,432.717z"/>
			<g>
				<path style="fill:#92E3A9;stroke:#263238;stroke-linecap:round;stroke-linejoin:round;stroke-miterlimit:10;" d="
					M495.253,291.797l-8.14,4.934l-17.761,5.18c0,0-56.242,10.361-59.449,14.061c-3.207,3.7-1.973,6.907,0.74,11.594
					c2.713,4.687,50.322,108.605,50.322,108.605l19.734-3.947l-33.055-99.478c0,0,62.163,12.58,73.016,10.607
					c10.854-1.973,24.668-13.567,27.135-22.448s-8.88-22.941-8.88-22.941L495.253,291.797z"/>
				<path style="fill:none;stroke:#263238;stroke-linecap:round;stroke-linejoin:round;stroke-miterlimit:10;" d="M433.686,323.096
					c0,0,12.435,6.058,14.667,12.753"/>
			</g>
			<polygon style="fill:#FFFFFF;stroke:#263238;stroke-linecap:round;stroke-linejoin:round;stroke-miterlimit:10;" points="
				559.635,209.407 532.994,206.941 494.019,295.251 519.674,299.691 			"/>
			<path style="fill:#92E3A9;stroke:#263238;stroke-linecap:round;stroke-linejoin:round;stroke-miterlimit:10;" d="
				M533.478,215.187c0,0-38.966,78.831-39.459,80.064c-0.493,1.233-11.594,4.44-14.061,4.934
				c-2.467,0.493-10.607,1.727-10.607,1.727l13.814-9.374l9.867-25.408l-12.087-6.167c0,0,22.201-33.301,27.135-44.649
				c4.934-11.347,6.907-14.307,11.84-14.554s18.994,0.74,18.994,0.74L533.478,215.187z"/>
			<path style="fill:#263238;stroke:#263238;stroke-linecap:round;stroke-linejoin:round;stroke-miterlimit:10;" d="
				M528.061,231.855l0.493,5.674c0,0-25.901,46.375-26.148,47.362s1.973,7.894,1.973,7.894l9.127-6.66l17.267-47.609l4.687-2.714
				l0.052-8.812L528.061,231.855z"/>
			<path style="fill:#FFFFFF;stroke:#263238;stroke-linecap:round;stroke-linejoin:round;stroke-miterlimit:10;" d="M538.362,146.61
				c0,0-9.157,22.181-11.192,28.896c-2.035,6.715-3.459,17.704-3.052,18.925c0.407,1.221,3.052,5.494,7.733,5.698
				c4.68,0.203,8.75,0.203,8.75,0.203l-7.122,14.855c0,0,0.814,11.599,2.035,11.802c1.221,0.204,19.128-13.634,19.535-14.244
				c0.407-0.61,11.802-25.03,11.802-25.03s10.175-5.087,10.785-9.564c0.611-4.477-2.645-6.715-2.645-6.715v-5.494l4.477-13.43
				c0,0-11.192-7.326-23.605-10.378c-12.413-3.052-15.058-1.017-15.058-1.017L538.362,146.61z"/>
			<g>
				<path style="fill:#263238;stroke:#263238;stroke-linecap:round;stroke-linejoin:round;stroke-miterlimit:10;" d="
					M558.915,134.197c0,0-18.314-4.884-26.454,2.238c-8.14,7.122,13.023,18.518,19.942,19.535c6.919,1.018,15.465-0.407,13.43,1.424
					c-2.035,1.831-6.512,4.68-4.273,6.512s4.68,2.645,4.68,2.645s-9.564,20.96-11.192,23.402c-1.628,2.442-4.68,2.238-6.512,1.628
					c-1.831-0.611-10.582-6.105-13.431-7.122c-2.849-1.017-8.14-4.07-9.361-0.814c-1.221,3.256-4.273,17.093,0.204,20.146
					c4.477,3.052,26.25-4.68,29.506-6.919c3.256-2.239,4.273-6.308,4.884-7.122c0.61-0.814,9.361-15.262,10.175-16.279
					c0.814-1.017,4.477-2.035,4.477-2.035s7.326-14.651,7.936-20.349C583.537,145.389,564.409,133.993,558.915,134.197z"/>
				<path style="fill:none;stroke:#263238;stroke-linecap:round;stroke-linejoin:round;stroke-miterlimit:10;" d="M539.787,162.482
					l-0.407,8.954c0,0-9.564,10.785-9.564,12.006c0,1.221,11.396-0.203,11.396-0.203"/>
				<path style="fill:none;stroke:#263238;stroke-linecap:round;stroke-linejoin:round;stroke-miterlimit:10;" d="M538.362,160.447
					c0,0-1.221-2.442-3.866-1.628"/>
				<path style="fill:none;stroke:#263238;stroke-linecap:round;stroke-linejoin:round;stroke-miterlimit:10;" d="M546.909,165.535
					c0,0,5.901-0.61,7.733,3.866"/>
				<path style="fill:none;stroke:#FFFFFF;stroke-linecap:round;stroke-linejoin:round;stroke-miterlimit:10;" d="M531.036,188.122
					c0,0,5.291,3.256,8.75,3.256"/>
				<path style="fill:#263238;" d="M548.922,174.353c-0.557,1.104-1.578,1.71-2.281,1.356c-0.702-0.355-0.82-1.537-0.262-2.64
					c0.557-1.104,1.578-1.711,2.281-1.356C549.362,172.067,549.479,173.249,548.922,174.353z"/>
				<path style="fill:#263238;" d="M536.183,169.396c-0.557,1.104-1.578,1.71-2.281,1.356c-0.702-0.355-0.82-1.537-0.262-2.64
					c0.557-1.104,1.578-1.71,2.281-1.356C536.622,167.11,536.74,168.292,536.183,169.396z"/>
			</g>
			<path style="fill:#263238;stroke:#263238;stroke-linecap:round;stroke-linejoin:round;stroke-miterlimit:10;" d="
				M447.891,424.469l-1.727,10.361l-3.7,0.987c0,0-3.453,4.194-4.194,5.18c-0.74,0.987-9.867,7.647-12.334,8.88
				c-2.467,1.233-8.634,1.727-8.387,3.453c0.247,1.727,13.32,3.207,21.708,3.453c8.387,0.247,13.074-2.467,13.074-2.467l0.74,1.727
				l8.634-0.74c0,0-0.493-8.14-0.247-11.594c0.247-3.453-0.493-8.387-0.493-8.387l-0.493-7.154L447.891,424.469z"/>
			<g>
				<path style="fill:#92E3A9;stroke:#263238;stroke-linecap:round;stroke-linejoin:round;stroke-miterlimit:10;" d="
					M517.207,303.391c0,0-70.056,8.634-71.536,10.36c-1.48,1.727-0.247,52.789-0.247,52.789l-8.14,59.763l25.161,7.647
					c0,0,7.894-50.389,10.607-63.957c2.714-13.567,3.947-30.588,3.947-30.588s38.728,8.88,52.049,1.48
					c13.321-7.4,10.607-16.527,10.607-16.527"/>
				<path style="fill:none;stroke:#263238;stroke-linecap:round;stroke-linejoin:round;stroke-miterlimit:10;" d="M446.758,364.545
					c0,0,3.188-14.348,3.826-22"/>
				<path style="fill:none;stroke:#263238;stroke-linecap:round;stroke-linejoin:round;stroke-miterlimit:10;" d="M471.794,331.159
					c-0.907-1.125-1.841-2.085-2.717-2.643"/>
				<path style="fill:none;stroke:#263238;stroke-linecap:round;stroke-linejoin:round;stroke-miterlimit:10;" d="M476.999,339.406
					c0,0-1.415-2.775-3.279-5.588"/>
			</g>
			<path style="fill:#92E3A9;stroke:#263238;stroke-linecap:round;stroke-linejoin:round;stroke-miterlimit:10;" d="M558.649,204.72
				c0,0-27.874,51.309-33.795,64.383c-5.92,13.074-13.814,31.328-13.814,33.301s-5.18,52.542-3.453,53.529
				c1.727,0.987,27.628-7.4,39.715-12.087c12.087-4.687,12.581-8.14,13.567-10.854c0.987-2.714,0.74-37.742,0.74-37.742
				s25.161-71.536,24.914-74.743C586.276,217.301,558.649,204.72,558.649,204.72z"/>
			<path style="fill:none;stroke:#263238;stroke-linecap:round;stroke-linejoin:round;stroke-miterlimit:10;" d="M537.455,256.597
				c-4.565,4.481-8.408,7.819-8.408,7.819"/>
			<path style="fill:none;stroke:#263238;stroke-linecap:round;stroke-linejoin:round;stroke-miterlimit:10;" d="M567.529,210.394
				c0,0-11.594,22.694-17.514,31.821c-2.352,3.627-6.146,7.877-9.864,11.682"/>
			<path style="fill:none;stroke:#263238;stroke-linecap:round;stroke-linejoin:round;stroke-miterlimit:10;" d="M530.445,205.633
				c0,0-12.005,20.055-15.458,31.895c-3.454,11.84-4.194,18.007-4.194,18.007"/>
			<polyline style="fill:none;stroke:#263238;stroke-linecap:round;stroke-linejoin:round;stroke-miterlimit:10;" points="
				524.114,234.322 535.513,226.989 535.954,244.189 			"/>
			
				<line style="fill:none;stroke:#263238;stroke-linecap:round;stroke-linejoin:round;stroke-miterlimit:10;" x1="548.432" y1="311.392" x2="552.235" y2="310.792"/>
			<polyline style="fill:none;stroke:#263238;stroke-linecap:round;stroke-linejoin:round;stroke-miterlimit:10;" points="
				551.002,306.351 524.114,309.558 524.114,315.232 543.307,312.201 			"/>
			<g>
				<path style="fill:#FFFFFF;stroke:#263238;stroke-linecap:round;stroke-linejoin:round;stroke-miterlimit:10;" d="
					M513.507,213.354c0,0,4.44-9.374,6.66-9.62c2.22-0.247,7.154,0,7.154,1.973c0,1.973-2.713,2.22-2.713,2.22h-3.7l-1.727,4.44
					L513.507,213.354z"/>
				<g>
					<path style="fill:#FFFFFF;stroke:#263238;stroke-linecap:round;stroke-linejoin:round;stroke-miterlimit:10;" d="
						M507.34,231.115l1.727-9.62c0,0,0.74-8.387,1.973-8.88c1.233-0.493,12.581-0.247,12.581-0.247s0.247,9.867-0.74,12.334
						c-0.987,2.467-5.427,3.454-5.427,3.454s-0.987,3.453-1.727,4.44c-0.74,0.987-3.453,2.22-3.453,2.22l-0.74,1.973l-6.414-4.194
						L507.34,231.115z"/>
					<polyline style="fill:#FFFFFF;stroke:#263238;stroke-linecap:round;stroke-linejoin:round;stroke-miterlimit:10;" points="
						517.453,228.155 516.22,223.468 520.907,223.221 					"/>
					<polygon style="fill:#FFFFFF;stroke:#263238;stroke-linecap:round;stroke-linejoin:round;stroke-miterlimit:10;" points="
						504.873,230.375 514.987,237.529 511.04,241.722 502.406,233.828 					"/>
					<path style="fill:#92E3A9;stroke:#263238;stroke-linecap:round;stroke-linejoin:round;stroke-miterlimit:10;" d="
						M502.406,233.828L514,242.462l-22.201,33.795c0,0-3.7,0.987-7.894-0.493c-4.194-1.48-8.14-9.867-8.14-10.854
						C475.765,263.923,502.406,233.828,502.406,233.828z"/>
				</g>
			</g>
			<path style="fill:#FFFFFF;stroke:#263238;stroke-linecap:round;stroke-linejoin:round;stroke-miterlimit:10;" d="M493.526,273.05
				c0,0-3.7-6.907-3.947-8.88c-0.247-1.973-0.493-5.92-1.727-7.4c-1.233-1.48-2.714-2.467-3.207-4.687
				c-0.493-2.22-2.713-1.233-2.96,0.987c-0.247,2.22,1.727,4.44,1.727,4.44s-6.167-1.973-7.154-1.48
				c-0.987,0.493-2.96,1.233-2.467,2.96c0.493,1.727,1.233,3.207,1.233,3.207s-3.947,5.18-3.947,7.647s2.714,6.414,4.687,7.894
				c1.973,1.48,8.88,2.96,8.88,2.96L493.526,273.05z"/>
			<path style="fill:#92E3A9;stroke:#263238;stroke-linecap:round;stroke-linejoin:round;stroke-miterlimit:10;" d="M564.7,222.294
				l-22.332,46.316l-54.516,2.96c0,0-4.687,0.987-5.674,5.674c-0.987,4.687-0.74,6.907-0.74,6.907s36.262,4.44,47.609,5.18
				c11.347,0.74,25.161,2.22,26.888,0.493c1.727-1.727,22.201-44.155,22.201-44.155"/>
		</g>
	</g>
</g>
<g id="Character_1">
	<g>
		<g>
			
				<rect x="232.673" y="358.507" style="fill:#263238;stroke:#263238;stroke-linecap:round;stroke-linejoin:round;stroke-miterlimit:10;" width="5.7" height="54.918"/>
			
				<rect x="196.725" y="306.309" transform="matrix(0.9932 -0.1161 0.1161 0.9932 -37.3854 25.6841)" style="fill:#263238;stroke:#263238;stroke-linecap:round;stroke-linejoin:round;stroke-miterlimit:10;" width="10.122" height="54.918"/>
			<polygon style="fill:#8C8C8C;stroke:#263238;stroke-linecap:round;stroke-linejoin:round;stroke-miterlimit:10;" points="
				242.758,415.665 242.758,406.41 228.289,406.41 228.289,415.751 170.411,438.979 170.411,449.941 174.357,449.941 
				174.357,441.61 235.731,427.644 295.479,441.61 295.479,449.941 299.32,449.941 299.32,438.979 			"/>
			
				<rect x="221.273" y="358.507" style="fill:#263238;stroke:#263238;stroke-linecap:round;stroke-linejoin:round;stroke-miterlimit:10;" width="28.5" height="17.536"/>
			<g>
				<path style="fill:#263238;stroke:#263238;stroke-linecap:round;stroke-linejoin:round;stroke-miterlimit:10;" d="
					M170.411,450.38c0-3.39-2.748-6.139-6.139-6.139c-3.39,0-6.139,2.748-6.139,6.139s2.748,6.139,6.139,6.139
					C167.663,456.518,170.411,453.77,170.411,450.38z"/>
				<path style="fill:#FFFFFF;stroke:#263238;stroke-linecap:round;stroke-linejoin:round;stroke-miterlimit:10;" d="
					M166.903,450.38c0-1.453-1.178-2.631-2.631-2.631c-1.453,0-2.631,1.178-2.631,2.631c0,1.453,1.178,2.631,2.631,2.631
					C165.726,453.01,166.903,451.833,166.903,450.38z"/>
			</g>
			<g>
				<path style="fill:#263238;stroke:#263238;stroke-linecap:round;stroke-linejoin:round;stroke-miterlimit:10;" d="
					M312.036,450.38c0-3.39-2.748-6.139-6.139-6.139s-6.138,2.748-6.138,6.139s2.748,6.139,6.138,6.139
					S312.036,453.77,312.036,450.38z"/>
				
					<circle style="fill:#FFFFFF;stroke:#263238;stroke-linecap:round;stroke-linejoin:round;stroke-miterlimit:10;" cx="305.898" cy="450.38" r="2.631"/>
			</g>
			<polygon style="fill:#8C8C8C;stroke:#263238;stroke-linecap:round;stroke-linejoin:round;stroke-miterlimit:10;" points="
				238.154,450.257 233.331,450.257 230.92,417.371 240.566,417.371 			"/>
			
				<rect x="233.112" y="443.241" style="fill:#263238;stroke:#263238;stroke-linecap:round;stroke-linejoin:round;stroke-miterlimit:10;" width="4.823" height="13.592"/>
		</g>
		<g>
			<g>
				<path style="fill:#8C8C8C;stroke:#263238;stroke-linecap:round;stroke-linejoin:round;stroke-miterlimit:10;" d="
					M197.555,333.262L197.555,333.262c-11.827,1.138-22.338-7.527-23.476-19.354l-6.732-69.949
					c-1.138-11.827,7.527-22.338,19.354-23.476l0,0c11.827-1.138,22.338,7.527,23.476,19.354l6.732,69.949
					C218.048,321.613,209.383,332.123,197.555,333.262z"/>
				<path style="fill:#8C8C8C;stroke:#263238;stroke-linecap:round;stroke-linejoin:round;stroke-miterlimit:10;" d="
					M202.656,332.771L202.656,332.771c-11.827,1.138-22.338-7.527-23.476-19.354l-6.732-69.949
					c-1.138-11.827,7.527-22.338,19.354-23.476h0c11.827-1.138,22.338,7.527,23.476,19.354l6.732,69.948
					C223.149,321.122,214.484,331.633,202.656,332.771z"/>
			</g>
			<path id="XMLID_2_" style="fill:#8C8C8C;stroke:#263238;stroke-linecap:round;stroke-linejoin:round;stroke-miterlimit:10;" d="
				M299.736,364l-103.827,2.638c-2.341,0.074-4.299-1.764-4.373-4.105l-0.507-16.064c-0.074-2.341,1.764-4.299,4.105-4.373
				l103.827-2.638c2.341-0.074,4.299,1.764,4.373,4.105l0.507,16.064C303.915,361.968,302.077,363.926,299.736,364z"/>
			<path id="XMLID_1_" style="fill:#8C8C8C;stroke:#263238;stroke-linecap:round;stroke-linejoin:round;stroke-miterlimit:10;" d="
				M254.316,364.794l-58.407,1.844c-2.341,0.074-4.299-1.764-4.373-4.105l-0.507-16.064c-0.074-2.341,1.764-4.299,4.105-4.373
				l58.407-1.844c2.341-0.074,4.299,1.764,4.373,4.105l0.507,16.064C258.495,362.762,256.657,364.72,254.316,364.794z"/>
		</g>
		<g>
			<g>
				<path style="fill:#FFFFFF;stroke:#263238;stroke-linecap:round;stroke-linejoin:round;stroke-miterlimit:10;" d="
					M313.032,331.294c0,0,0.887,17.151,3.253,32.528c2.366,15.377,6.266,61.983,6.266,61.983s2.07,7.984,5.027,13.603
					c2.957,5.618,5.323,7.984,5.323,7.984s7.689,7.689,7.393,8.871c-0.296,1.183-5.123,1.052-9.855,0.165
					c-4.731-0.887-5.701-2.015-8.362-3.789c-2.661-1.774-8.706-4.078-11.367-4.965c-2.661-0.887-3.536-3.24-2.649-5.901
					c0.887-2.661,3.844-8.871,3.844-12.716c0-3.844-2.422-22.061-8.928-34.186c-6.506-12.124-10.35-33.12-10.35-33.12
					L313.032,331.294z"/>
				<path style="fill:#92E3A9;stroke:#263238;stroke-linecap:round;stroke-linejoin:round;stroke-miterlimit:10;" d="
					M314.567,442.661c-1.878-1.46-3.639-3.028-5.14-4.449c-0.559,1.429-1.075,2.689-1.366,3.562
					c-0.887,2.661-0.013,5.014,2.649,5.901c2.661,0.887,8.706,3.191,11.367,4.965c2.661,1.774,3.631,2.902,8.362,3.789
					c4.731,0.887,9.559,1.018,9.855-0.165c0.296-1.183-7.393-8.871-7.393-8.871l-3.844,1.774
					C329.056,449.166,319.889,446.801,314.567,442.661z"/>
			</g>
			<g>
				<path style="fill:#FFFFFF;stroke:#263238;stroke-linecap:round;stroke-linejoin:round;stroke-miterlimit:10;" d="
					M199.563,296.052c0,0-2.665,10.417-1.211,16.958c1.454,6.541,11.386,21.803,28.587,25.437
					c17.201,3.634,60.429,2.456,60.429,2.456s-10.412,15.822-14.293,34.885c-2.569,12.617-10.417,30.283-11.628,32.947
					c-1.211,2.665-15.505,7.51-15.02,9.69s2.18,15.747,5.814,21.319c3.634,5.572,9.69,7.995,12.113,8.721
					c2.423,0.727,2.907,0.727,2.907-1.696s-1.696-5.814-1.696-7.995s-0.242-16.958,0.727-18.896
					c0.969-1.938,32.705-51.844,37.55-60.08c4.845-8.237,12.355-24.226,14.536-26.891c2.18-2.665,4.845-6.299,2.665-10.902
					c-2.18-4.603-52.229-20.041-52.229-20.041l-2.628-9.305l-24.953-1.454L199.563,296.052z"/>
				<path style="fill:#263238;stroke:#263238;stroke-linecap:round;stroke-linejoin:round;stroke-miterlimit:10;" d="
					M268.812,301.966l-2.628-9.305l-24.953-1.454l-41.669,4.845c0,0-2.721,10.43-1.211,16.958
					c2.403,10.395,11.386,21.803,28.587,25.437c17.201,3.634,60.429,2.456,60.429,2.456s4.103-20.489,12.115-28.488
					C289.808,309.214,268.812,301.966,268.812,301.966z"/>
				<path style="fill:#FFFFFF;stroke:#263238;stroke-linecap:round;stroke-linejoin:round;stroke-miterlimit:10;" d="
					M287.367,340.904c0,0,9.448-2.423,16.716-6.299"/>
				<path style="fill:#92E3A9;stroke:#263238;stroke-linecap:round;stroke-linejoin:round;stroke-miterlimit:10;" d="
					M254.662,430.055c-1.725-3.968-1.607-11.985-1.397-16.275c-3.651,1.811-7.081,3.56-6.84,4.647
					c0.484,2.18,2.18,15.747,5.814,21.319c3.634,5.572,9.69,7.995,12.113,8.721c2.423,0.727,2.907,0.727,2.907-1.696
					c0-2.419-1.69-5.804-1.695-7.984c-3.095-0.289-7.511-1.464-7.511-1.464S257.085,435.627,254.662,430.055z"/>
			</g>
			<path style="fill:#FFFFFF;stroke:#263238;stroke-linecap:round;stroke-linejoin:round;stroke-miterlimit:10;" d="
				M251.164,200.117l-7.51,3.149c0,0,6.056,56.689,5.814,64.683c-0.242,7.995-0.727,23.984-0.727,23.984s10.417,3.149,17.443,0.727
				l-0.484-27.375c0,0,5.087-26.164,3.149-34.643c-1.938-8.479-7.995-23.499-7.995-23.499S257.947,200.36,251.164,200.117z"/>
			<path style="fill:#FFFFFF;stroke:#263238;stroke-linecap:round;stroke-linejoin:round;stroke-miterlimit:10;" d="
				M248.983,224.586l7.272-11.087l8.96,13.025c0,0-3.876-18.17-4.361-19.381c-0.484-1.211-2.18-3.634-5.087-5.572
				c-2.907-1.938-6.308-2.019-8.237-2.18c-1.929-0.161-3.876,3.876-3.876,3.876L248.983,224.586z"/>
			<path style="fill:#92E3A9;stroke:#263238;stroke-linecap:round;stroke-linejoin:round;stroke-miterlimit:10;" d="
				M245.601,199.229c0,0-24.352,5.327-26.445,6.849c-2.093,1.522-3.044,6.469-2.473,8.371c0.571,1.902,6.088,42.997,6.088,42.997
				l-27.967,40.904c0,0,9.132,7.61,17.693,9.132c8.561,1.522,26.826-0.761,33.294-3.425c6.469-2.663,6.469-2.663,6.469-2.663
				s3.044-49.656-0.19-69.252S245.601,199.229,245.601,199.229z"/>
			<g>
				<path style="fill:#FFFFFF;stroke:#263238;stroke-linecap:round;stroke-linejoin:round;stroke-miterlimit:10;" d="
					M320.37,262.393l9.513-4.186c0,0,2.854-6.278,3.234-6.849c0.38-0.571,3.615-1.522,5.137-2.854
					c1.522-1.332,3.615-3.615,4.186-3.805c0.571-0.19,1.522,1.522,0,3.805c-1.522,2.283-3.995,4.376-3.995,4.376l9.322-3.425
					c0,0,3.615-6.088,4.566-3.424c0.951,2.663-3.995,10.844-5.137,13.508c-1.142,2.664-2.283,3.995-4.376,4.376
					c-2.093,0.38-8.561,1.522-9.893,1.712c-1.332,0.19-9.513,4.947-9.513,4.947L320.37,262.393z"/>
				<path style="fill:#FFFFFF;stroke:#263238;stroke-linecap:round;stroke-linejoin:round;stroke-miterlimit:10;" d="
					M333.569,260.491c1.689-1.427,3.639-2.854,4.685-2.854c2.093,0,6.659,0.38,6.659,0.38s2.664-6.088,3.995-7.039
					c1.332-0.951,2.473,0.38,1.332,2.283"/>
			</g>
			<path style="fill:#92E3A9;stroke:#263238;stroke-linecap:round;stroke-linejoin:round;stroke-miterlimit:10;" d="
				M258.348,203.795c0,0,6.088,26.445,5.898,36.338c-0.19,9.893-3.234,14.84-2.664,18.264c0.571,3.425,1.903,43.378,1.903,43.378
				l5.327,0.19c0,0-1.332-15.22-1.142-18.074c0.19-2.854,2.093-14.269,2.093-14.269s9.513,18.835,10.844,19.786
				c1.332,0.951,45.471-17.884,45.471-17.884l-3.234-10.845l-33.675,6.849c0,0-6.659-22.069-7.61-26.826
				c-0.951-4.756-1.712-21.499-4.376-25.684C274.519,210.835,258.348,203.795,258.348,203.795z"/>
			<path style="fill:none;stroke:#263238;stroke-linecap:round;stroke-linejoin:round;stroke-miterlimit:10;" d="M269.763,269.623
				c0,0,1.142-4.756,3.044-17.313c1.902-12.557,0.19-22.64,0.19-22.64"/>
			<path style="fill:none;stroke:#263238;stroke-linecap:round;stroke-linejoin:round;stroke-miterlimit:10;" d="M267.682,218.615
				c0.903,6.843,1.593,15.306,0.369,19.997c-2.283,8.752-5.327,15.601-5.327,15.601"/>
			<path style="fill:none;stroke:#263238;stroke-linecap:round;stroke-linejoin:round;stroke-miterlimit:10;" d="M265.958,207.981
				c0,0,0.574,2.872,1.198,6.952"/>
			<path style="fill:none;stroke:#263238;stroke-linecap:round;stroke-linejoin:round;stroke-miterlimit:10;" d="M247.796,244.979
				c2.47,6.123,4.655,12.088,4.655,12.088"/>
			<path style="fill:none;stroke:#263238;stroke-linecap:round;stroke-linejoin:round;stroke-miterlimit:10;" d="M236.279,202.273
				c0,0,4.376,26.826,7.8,34.055c0.698,1.474,1.46,3.209,2.23,5.038"/>
			<g>
				<path style="fill:#FFFFFF;stroke:#263238;stroke-linecap:round;stroke-linejoin:round;stroke-miterlimit:10;" d="
					M290.31,256.686l7.42-2.093c0,0,4.756-6.088,5.898-7.61c1.142-1.522,3.805-1.522,5.708-2.663
					c1.903-1.142,4.376-5.327,5.327-4.566c0.951,0.761,0,4.186-0.951,5.137c-0.951,0.951-3.234,2.283-3.995,2.854
					c-0.761,0.571,8.942-1.712,8.942-1.712s6.278-5.517,6.659-3.995c0.381,1.522-2.854,6.849-2.854,6.849s-4.566,4.376-6.849,6.278
					c-2.283,1.902-7.8,2.664-9.322,3.044c-1.522,0.38-4.186,0.761-4.186,0.761l-11.415,4.185L290.31,256.686z"/>
				<path style="fill:#FFFFFF;stroke:#263238;stroke-linecap:round;stroke-linejoin:round;stroke-miterlimit:10;" d="
					M320.941,250.027c0,0-3.995,1.902-6.088,2.854"/>
				
					<line style="fill:#FFFFFF;stroke:#263238;stroke-linecap:round;stroke-linejoin:round;stroke-miterlimit:10;" x1="309.716" y1="247.744" x2="306.292" y2="248.505"/>
			</g>
			<path style="fill:#92E3A9;stroke:#263238;stroke-linecap:round;stroke-linejoin:round;stroke-miterlimit:10;" d="
				M223.341,204.556c0,0-11.225,3.805-12.937,6.659c-1.712,2.854,4.376,26.255,8.942,39.192
				c4.566,12.937,16.742,34.626,18.264,35.387c1.522,0.761,41.285-13.318,50.417-16.172c9.132-2.854,10.654-4.376,10.654-4.376
				l-3.995-10.274l-45.661,8.181l-14.079-43.948"/>
			<g>
				<path style="fill:#263238;stroke:#263238;stroke-linecap:round;stroke-linejoin:round;stroke-miterlimit:10;" d="
					M278.468,146.618c0,0,4.446,3.043,2.192,6.23c-2.254,3.187-7.018,3.452-7.018,3.452l-4.154-6.539
					C269.488,149.761,274.45,143.901,278.468,146.618z"/>
				<g>
					<path style="fill:#FFFFFF;stroke:#263238;stroke-linecap:round;stroke-linejoin:round;stroke-miterlimit:10;" d="
						M273.815,150.516c0,0,6.809,16.162,6.423,17.558c-0.386,1.397-3.548,3.555-2.109,5.663c1.439,2.108,5.663,6.333,5.551,6.925
						c-0.112,0.591-5.27,3.598-5.27,3.598s-3.61,12.972-5.076,14.9c-1.466,1.928-13.881-0.414-13.881-0.414l-2.625,14.566
						l-14.735-13.739l-5.508-5.202c0,0-4.939-22.176,5.534-35.507C252.591,145.533,273.815,150.516,273.815,150.516z"/>
					<path style="fill:#263238;" d="M272.869,173.286c-0.026,1.366-0.557,2.463-1.188,2.451c-0.63-0.012-1.12-1.129-1.095-2.494
						c0.026-1.366,0.557-2.463,1.188-2.451C272.405,170.804,272.895,171.921,272.869,173.286z"/>
					<path style="fill:#263238;stroke:#263238;stroke-linecap:round;stroke-linejoin:round;stroke-miterlimit:10;" d="
						M272.898,187.506c-4.276-0.378-6.169-3-6.169-3s-0.37,5.854,1.455,6.198C270.009,191.048,272.898,187.506,272.898,187.506z"/>
					<path style="fill:none;stroke:#263238;stroke-linecap:round;stroke-linejoin:round;stroke-miterlimit:10;" d="M269.073,167.866
						c0,0,3.788-3.204,7.18,0.559"/>
					<polygon style="fill:#263238;stroke:#263238;stroke-linecap:round;stroke-linejoin:round;stroke-miterlimit:10;" points="
						259.452,198.745 253.3,197.279 257.925,205.865 					"/>
				</g>
				<path style="fill:#263238;stroke:#263238;stroke-linecap:round;stroke-linejoin:round;stroke-miterlimit:10;" d="
					M273.815,150.516c0,0-1.346,4.215-7.894,9.715c-6.548,5.5-12.409,8.986-12.392,10.52c0.017,1.534,0.976,2.939-0.318,3.307
					c-1.294,0.368-3.145-0.532-3.145-0.532s-3.181,9.073-3.653,15.474c-0.473,6.401,1.882,12.416,1.882,12.416
					s-14.104,0.768-22.243-5.42c-8.139-6.188-10.434-13.172-9.533-19.247c0.901-6.075,3.476-25.242,16.022-34.631
					c12.546-9.388,30.463-8.948,36.546-5.168c6.083,3.78,10.504,6.634,9.38,9.667C277.345,149.651,273.815,150.516,273.815,150.516z
					"/>
			</g>
		</g>
		<g>
			<g>
				<path style="fill:#FFFFFF;stroke:#263238;stroke-linecap:round;stroke-linejoin:round;stroke-miterlimit:10;" d="
					M244.239,341.514c-0.359,0-0.723-0.079-1.075-0.244c-1.431-0.673-2.108-2.533-1.515-4.154
					c4.517-12.334,9.704-34.35,4.392-40.918c-1.241-0.969-8.707-3.016-48.949,1.165c-1.373,0.143-2.383,0.246-2.93,0.294
					c-2.813,0.244-5.212,4.303-5.83,5.706c-0.693,1.569-2.38,2.204-3.764,1.422c-1.385-0.784-1.947-2.695-1.255-4.266
					c0.39-0.882,3.99-8.643,10.419-9.202c0.531-0.045,1.513-0.147,2.849-0.286c42.878-4.458,51.1-2.217,53.596,0.869
					c9.448,11.682-2.01,44.006-3.346,47.653C246.382,340.777,245.338,341.514,244.239,341.514z"/>
			</g>
		</g>
	</g>
</g>
<g id="Device_1_">
	<g>
		<polygon style="fill:#D9D9D9;stroke:#263238;stroke-linecap:round;stroke-linejoin:round;stroke-miterlimit:10;" points="
			421.025,247.536 355.312,247.536 340.109,299.028 405.823,299.028 		"/>
		<polygon style="fill:#D9D9D9;stroke:#263238;stroke-linecap:round;stroke-linejoin:round;stroke-miterlimit:10;" points="
			292.044,296.207 291.211,299.028 405.823,299.028 406.656,296.207 		"/>
		<polygon style="fill:#263238;stroke:#263238;stroke-linecap:round;stroke-linejoin:round;stroke-miterlimit:10;" points="
			341.061,296.207 340.228,299.028 405.823,299.028 406.656,296.207 		"/>
	</g>
</g>
<g id="Table">
	<g>
		
			<rect x="393.761" y="306.755" style="fill:#FFFFFF;stroke:#263238;stroke-linecap:round;stroke-linejoin:round;stroke-miterlimit:10;" width="11.116" height="148.681"/>
		
			<rect x="393.761" y="306.755" style="fill:#263238;stroke:#263238;stroke-linecap:round;stroke-linejoin:round;stroke-miterlimit:10;" width="11.116" height="24.556"/>
		
			<rect x="257.666" y="299.057" style="fill:#FFFFFF;stroke:#263238;stroke-linecap:round;stroke-linejoin:round;stroke-miterlimit:10;" width="282.299" height="8.259"/>
		<path style="fill:#FFFFFF;stroke:#263238;stroke-linecap:round;stroke-linejoin:round;stroke-miterlimit:10;" d="M457.339,456.648
			H340.294l0,0c11.562-5.439,24.182-8.259,36.959-8.259h43.127C433.157,448.389,445.776,451.209,457.339,456.648L457.339,456.648z"
			/>
	</g>
</g>
</svg>
